<?xml version="1.0" standalone="no"?>
<!DOCTYPE svg PUBLIC "-//W3C//DTD SVG 20010904//EN"
 "http://www.w3.org/TR/2001/REC-SVG-20010904/DTD/svg10.dtd">
<svg version="1.0" xmlns="http://www.w3.org/2000/svg"
 width="512.000000pt" height="512.000000pt" viewBox="0 0 512.000000 512.000000"
 preserveAspectRatio="xMidYMid meet">
<metadata>
Created by potrace 1.14, written by Peter Selinger 2001-2017
</metadata>
<g transform="translate(0.000000,512.000000) scale(0.100000,-0.100000)"
fill="#000000" stroke="none">
<path d="M990 4993 c-151 -75 -254 -333 -259 -643 -2 -184 30 -345 103 -517
29 -71 30 -73 15 -73 -24 0 -224 -104 -310 -162 -52 -34 -130 -98 -174 -143
-82 -81 -165 -177 -165 -191 0 -4 -6 -15 -14 -23 -26 -30 -104 -180 -146 -282
-44 -106 -46 -138 -16 -184 17 -26 112 -57 246 -81 100 -18 370 -25 470 -12
58 7 140 19 152 22 4 0 9 -91 12 -204 3 -113 7 -214 9 -225 3 -11 7 -47 11
-80 4 -33 11 -82 16 -110 5 -27 12 -68 15 -90 3 -22 19 -91 35 -153 l29 -113
-43 -54 c-79 -96 -148 -244 -171 -365 -15 -78 -14 -285 1 -365 74 -382 383
-647 885 -759 146 -32 207 -42 389 -62 36 -3 79 -8 95 -11 17 -2 163 -5 325
-7 268 -3 485 6 640 29 114 16 182 28 265 46 50 11 92 19 95 19 14 -2 224 76
285 107 367 181 541 444 543 815 1 216 -61 403 -184 553 l-43 54 29 113 c28
109 63 304 75 418 4 42 16 375 15 436 0 8 14 9 47 3 90 -17 178 -24 308 -24
176 0 311 18 454 61 63 18 95 59 88 114 -11 81 -141 342 -230 459 -70 94 -207
224 -305 288 -84 57 -288 163 -312 163 -14 0 -13 3 19 79 137 321 134 704 -6
986 -40 81 -79 126 -143 163 -37 23 -57 27 -115 27 -82 -1 -137 -24 -183 -80
-29 -36 -62 -119 -62 -158 0 -31 -74 -175 -123 -240 -45 -59 -125 -144 -218
-233 -79 -74 -215 -184 -228 -184 -7 0 -49 12 -94 26 -45 15 -95 27 -111 26
-62 -2 -96 -40 -96 -107 0 -49 34 -76 139 -107 102 -32 100 -29 99 -152 -2
-176 -76 -303 -218 -375 -46 -23 -96 -41 -120 -43 -3 0 -16 -5 -29 -10 -44
-16 -186 -10 -258 11 -91 26 -146 34 -217 33 -222 -5 -399 -141 -498 -384 -54
-133 -123 -194 -256 -227 -122 -31 -261 -13 -382 49 -44 22 -48 36 -29 105 85
324 232 563 462 748 126 102 289 188 452 239 122 38 155 64 155 123 0 32 -6
47 -28 68 -37 35 -74 36 -181 3 -47 -14 -89 -26 -95 -26 -6 0 -51 34 -101 76
-299 253 -446 443 -472 614 -7 45 -45 119 -75 146 -72 66 -180 81 -268 37z
m127 -181 c6 -4 19 -39 28 -78 20 -89 74 -198 151 -305 65 -90 251 -281 345
-355 33 -26 56 -50 52 -54 -4 -3 -55 -38 -113 -76 -99 -65 -281 -231 -339
-309 l-23 -30 -34 40 c-119 138 -207 324 -239 505 -18 98 -13 334 9 412 52
187 113 282 163 250z m2951 -21 c30 -32 73 -132 99 -231 19 -72 25 -312 10
-409 -25 -162 -129 -377 -246 -511 l-31 -35 -16 25 c-41 62 -245 250 -340 313
-55 37 -106 67 -112 67 -22 0 -11 15 44 60 60 49 219 203 273 264 110 125 199
282 226 401 22 94 46 108 93 56z m-503 -1117 c132 -116 232 -250 305 -408 34
-74 85 -215 94 -262 3 -10 9 -40 15 -67 6 -26 13 -62 16 -80 3 -17 9 -58 13
-90 14 -88 11 -379 -4 -507 -7 -63 -26 -171 -40 -240 -15 -69 -27 -131 -27
-137 -1 -18 -1 -18 -99 33 -192 99 -498 181 -783 210 -33 3 -71 7 -85 10 -138
21 -690 21 -831 0 -39 -7 -110 -16 -164 -22 -77 -8 -290 -52 -386 -80 -114
-33 -224 -76 -317 -124 -59 -30 -78 -36 -84 -26 -11 19 -56 251 -63 321 -4 33
-8 71 -11 85 -2 14 -7 105 -10 202 l-7 177 53 -20 c79 -30 172 -49 253 -53 81
-3 216 17 264 39 17 8 35 15 40 15 17 0 127 75 162 111 45 45 92 120 121 194
80 204 218 294 397 260 37 -7 80 -18 96 -24 15 -6 27 -8 27 -6 0 2 12 0 26 -6
29 -10 199 -13 249 -4 165 32 291 92 384 184 37 36 79 87 93 112 41 70 76 186
84 276 l7 81 64 -40 c35 -23 101 -74 148 -114z m-2585 -92 c0 -5 29 -39 64
-78 l64 -69 -35 -69 c-52 -102 -88 -203 -119 -328 -15 -62 -29 -114 -30 -116
-5 -7 -129 -32 -192 -39 -165 -18 -492 2 -492 30 0 20 64 143 117 224 106 163
265 296 468 393 114 55 155 68 155 52z m3250 -22 c231 -95 417 -243 535 -425
43 -66 115 -204 115 -220 0 -41 -407 -55 -570 -20 -58 12 -96 19 -104 20 -5 0
-21 50 -36 110 -37 145 -52 191 -109 311 l-48 100 38 38 c20 21 50 56 65 77
16 21 32 39 35 39 3 0 39 -13 79 -30z m-1285 -1624 c22 -3 67 -8 100 -11 538
-52 903 -235 1027 -513 65 -144 74 -358 23 -511 -60 -177 -176 -303 -370 -400
-207 -103 -444 -159 -810 -189 -180 -14 -791 -6 -847 13 -7 2 -40 6 -73 9
-133 13 -310 54 -455 104 -144 50 -301 146 -379 230 -74 82 -129 188 -157 303
-13 51 -12 245 0 304 47 216 174 366 407 481 93 46 252 99 375 124 100 21 109
22 199 34 28 4 64 9 80 11 17 2 75 7 130 11 55 3 102 8 104 10 6 5 601 -4 646
-10z"/>
<path d="M1915 2493 c-57 -15 -105 -80 -105 -142 0 -40 32 -103 62 -123 94
-61 217 -10 233 96 8 54 -20 124 -61 151 -27 17 -96 27 -129 18z"/>
<path d="M3089 2481 c-38 -20 -79 -89 -79 -134 0 -38 33 -100 64 -121 41 -26
107 -31 151 -10 73 35 104 132 64 203 -12 23 -34 48 -47 57 -36 24 -113 26
-153 5z"/>
<path d="M2223 1535 c-84 -36 -81 -153 5 -183 65 -22 127 24 127 94 0 73 -65
118 -132 89z"/>
<path d="M2823 1535 c-99 -43 -71 -185 36 -185 48 0 88 30 96 73 15 80 -59
144 -132 112z"/>
<path d="M2515 4216 c-71 -31 -71 -142 0 -174 51 -23 107 -7 131 39 26 52 10
110 -37 135 -34 17 -55 17 -94 0z"/>
</g>
</svg>
